# xmcd
#
# Track frame offsets:
#	150
#	18186
#	31923
#	50960
#	67469
#	85931
#	99234
#	111168
#	124752
#	142642
#	155343
#	173022
#	183573
#	196332
#	208670
#
# Disc length: 3020 seconds
#
# Revision: 1
# Processed by: cddbd v1.5.2PL0 Copyright (c) Steve Scherf et al.
# Submitted via: audiograbber 1.83.01
#
DISCID=cc0bca0f
DTITLE=Heino - 30 Hits Collektion CD1
DYEAR=2009
DGENRE=Volksmusik
TTITLE0=Edelweiß
TTITLE1=Lieder der Berge
TTITLE2=Das Lied vom Frieden
TTITLE3=Darum gib Acht auf deine Heimat
TTITLE4=Blau blüht der Enzian
TTITLE5=Treue Bergvagabunden
TTITLE6=So ein Tag, so wunderschön wie heute
TTITLE7=San Bernardino
TTITLE8=Freunde der Nacht
TTITLE9=Deutschlandlied
TTITLE10=Der Berg der Versuchung
TTITLE11=Lang, lang ist's her
TTITLE12=Es ist nie zu spät für ein neues Leben
TTITLE13=Weiße Taube
TTITLE14=In einem anderen Land
EXTD=
EXTT0=
EXTT1=
EXTT2=
EXTT3=
EXTT4=
EXTT5=
EXTT6=
EXTT7=
EXTT8=
EXTT9=
EXTT10=
EXTT11=
EXTT12=
EXTT13=
EXTT14=
PLAYORDER=
